<svg width="64" height="64" viewBox="0 0 64 64" fill="none" xmlns="http://www.w3.org/2000/svg">
<path d="M55.6463 54.9725C53.1537 56.3199 50.0547 55.0399 47.8989 53.221C45.8105 51.402 43.1831 48.0336 40.8926 46.3494C37.1874 43.5873 31.7979 43.3852 27.8231 45.8104C25.4652 47.2252 23.781 49.4483 21.8947 51.402C20.0084 53.3557 17.7852 55.242 15.0905 55.781C11.8568 56.3873 8.42104 54.7704 6.60209 52.0757C4.78314 49.381 4.4463 45.8104 5.38946 42.7115C6.39999 39.6125 8.62314 36.9852 11.3179 35.0988C13.6758 33.482 16.7074 32.0673 17.1116 29.2378C17.4484 26.8125 15.7642 25.061 14.821 22.9725C13.8779 20.9515 13.2716 18.7283 13.0021 16.5725C12.8 14.9557 12.8 13.2715 13.6084 11.9241C15.0231 9.56622 18.5937 9.22937 21.0189 10.5767C23.4442 11.9241 24.8589 14.6188 25.7347 17.2462C26.0716 18.2567 26.341 19.2673 26.88 20.1431C27.4189 21.0188 28.2274 21.8273 29.2379 22.0294C30.3158 22.2315 31.461 21.7599 32.2695 20.9515C33.5495 19.6715 34.021 17.7178 34.8968 16.1683C35.9074 14.4167 37.0526 12.6652 38.5347 11.3178C40.5558 9.43148 43.1831 8.15148 45.8779 8.21885C48.64 8.28622 51.3347 9.90306 52.2779 12.5304C53.221 15.0904 52.2779 17.9199 50.7958 20.2104C49.3137 22.501 47.2926 24.3873 45.8105 26.6104C44.261 28.8336 43.2505 31.6631 44.0589 34.2231C45.2042 36.3115 47.36 36.9852 49.8526 39.0062C52.3452 41.0273 56.0505 43.9241 57.3979 46.7536C58.88 49.381 58.4084 53.4904 55.6463 54.9725Z" fill="#2F80ED"/>
<path d="M29.1032 54.5685C29.0358 54.838 28.699 54.9727 28.4969 54.838L27.8232 54.5685L27.5537 55.2422C27.4864 55.5117 27.1495 55.6464 26.88 55.5117C26.6106 55.4443 26.4758 55.1074 26.6106 54.9053L26.88 54.2317L26.2064 53.9622C25.9369 53.8948 25.8022 53.558 25.9369 53.2885C26.0043 53.019 26.3411 52.8843 26.5432 53.019L27.2169 53.2885L27.4864 52.6148C27.5537 52.3453 27.8906 52.2106 28.0927 52.3453C28.3622 52.4127 28.4969 52.7495 28.3622 52.9517L28.0927 53.6253L28.7664 53.8948C29.1032 54.0296 29.2379 54.299 29.1032 54.5685Z" fill="#2F80ED"/>
<path d="M3.77262 30.4503C3.83999 30.7198 3.63788 30.9892 3.36841 31.0566L2.69473 31.1913L2.82946 31.865C2.89683 32.1345 2.69473 32.404 2.42525 32.404C2.15578 32.4713 1.8863 32.2692 1.8863 31.9998L1.75157 31.3261L1.07788 31.4608C0.80841 31.5282 0.538936 31.3261 0.538936 31.0566C0.471567 30.7871 0.673673 30.5177 0.943146 30.5177L1.61683 30.3829L1.48209 29.7092C1.41473 29.4398 1.61683 29.1703 1.8863 29.1703C2.15578 29.1029 2.42525 29.305 2.42525 29.5745L2.55999 30.2482L3.23367 30.1134C3.50315 30.0461 3.77262 30.1808 3.77262 30.4503Z" fill="#2F80ED"/>
<path d="M51.1328 22.0294V22.5684L51.0654 32.8084V37.7936C51.0654 38.7368 50.257 39.4778 49.3138 39.4778L23.8485 39.3431H22.7033C21.7601 39.3431 20.9517 38.602 21.0191 37.5915L21.0864 21.8947C21.0864 20.9515 21.8949 20.1431 22.838 20.2105L43.7222 20.2778H49.4485C50.3917 20.2778 51.2001 21.0863 51.1328 22.0294Z" fill="white"/>
<path d="M49.3138 39.4106L22.7032 39.2759C21.7601 39.2759 20.9517 38.4675 20.9517 37.5243V35.8401C20.9517 36.7832 21.6927 37.5917 22.7032 37.5917L49.3811 37.7264C50.3243 37.7264 51.1327 36.9854 51.1327 35.9748V37.659C51.0653 38.6696 50.3243 39.4106 49.3138 39.4106Z" fill="#2F80ED"/>
<path d="M29.7769 32C31.0047 32 32 31.0047 32 29.7769C32 28.5491 31.0047 27.5537 29.7769 27.5537C28.5491 27.5537 27.5537 28.5491 27.5537 29.7769C27.5537 31.0047 28.5491 32 29.7769 32Z" fill="#2F80ED"/>
<path d="M42.3748 32.0672C43.6026 32.0672 44.5979 31.0718 44.5979 29.844C44.5979 28.6162 43.6026 27.6208 42.3748 27.6208C41.147 27.6208 40.1516 28.6162 40.1516 29.844C40.1516 31.0718 41.147 32.0672 42.3748 32.0672Z" fill="#2F80ED"/>
<path d="M54.0296 24.3202L53.9622 32.2697V39.9496C53.9622 40.8928 53.1538 41.7012 52.2106 41.7012L25.6001 41.5665C24.6569 41.5665 23.8485 40.7581 23.8485 39.8149V39.276L23.9159 24.1181C23.9159 23.1749 24.7243 22.3665 25.6675 22.4339L42.8464 22.5012L51.1327 22.5686H52.278C53.2885 22.5686 54.0296 23.3097 54.0296 24.3202Z" fill="white"/>
<path d="M52.2106 41.7014L25.6001 41.5667C24.6569 41.5667 23.8485 40.7582 23.8485 39.8151V38.1309C23.8485 39.074 24.5896 39.8824 25.6001 39.8824L52.2106 40.0172C53.1538 40.0172 53.9622 39.2761 53.9622 38.2656V39.9498C53.9622 40.893 53.2211 41.7014 52.2106 41.7014Z" fill="#2F80ED"/>
<g opacity="0.3">
<g opacity="0.3">
<g opacity="0.3">
<g opacity="0.3">
<path opacity="0.3" d="M52.3453 22.5686H51.2001V22.0297C51.2001 21.0865 50.459 20.2781 49.4485 20.2781H48.1685V20.9518H43.3854C43.1832 21.4233 42.9811 21.9623 42.9138 22.5012C42.779 23.1076 42.7117 23.7139 42.7117 24.3202C42.7117 28.9686 46.4843 32.7412 51.1327 32.8086H51.2001C52.2106 32.8086 53.1538 32.6065 54.0296 32.337L54.0969 24.3875C54.0296 23.3097 53.2885 22.5686 52.3453 22.5686Z" fill="#2F80ED"/>
</g>
</g>
</g>
</g>
<path d="M28.6991 25.6003L49.3138 25.6677C49.3138 26.6782 50.1222 27.4867 51.1327 27.4867L51.0654 36.6488C50.0548 36.6488 49.2464 37.4572 49.2464 38.4677L28.6317 38.4003C28.6317 37.3898 27.8233 36.5814 26.8127 36.5814L26.8801 27.4193C27.8906 27.4193 28.6991 26.6109 28.6991 25.6003Z" fill="#2F80ED"/>
<path d="M32.4043 34.3584C33.7065 34.3584 34.7622 33.3027 34.7622 32.0005C34.7622 30.6982 33.7065 29.6426 32.4043 29.6426C31.1021 29.6426 30.0464 30.6982 30.0464 32.0005C30.0464 33.3027 31.1021 34.3584 32.4043 34.3584Z" fill="white"/>
<path d="M45.5411 34.4255C46.8434 34.4255 47.899 33.3698 47.899 32.0676C47.899 30.7654 46.8434 29.7097 45.5411 29.7097C44.2389 29.7097 43.1832 30.7654 43.1832 32.0676C43.1832 33.3698 44.2389 34.4255 45.5411 34.4255Z" fill="white"/>
<path d="M39.0062 42.5094L52.8167 36.3788C54.2314 35.7051 55.9156 36.3788 56.5893 37.7936C57.1956 39.2083 56.6567 40.8251 55.2419 41.5662L40.8251 48.7746C38.2651 50.0546 35.4356 50.7283 32.6062 50.7283C30.383 50.7283 28.2272 50.3241 26.1388 49.583L16.9767 46.1473V33.7515H17.8525C20.0756 33.7515 22.2988 34.3578 24.1851 35.4357C26.1388 36.5136 28.2946 37.1199 30.5177 37.1199H37.2546C38.8714 37.1199 40.1514 38.4673 40.1514 40.0841C40.1514 41.7009 38.8714 43.0483 37.2546 43.0483H27.3514" fill="white"/>
<path d="M56.7915 38.9389C56.7915 40.0168 56.1852 41.0273 55.242 41.4989L53.6252 42.3073C53.962 41.8357 54.1641 41.2968 54.1641 40.6905C54.1641 40.2862 54.0968 39.882 53.8947 39.4778C53.221 38.0631 51.6041 37.3894 50.122 38.0631L36.5136 43.3178C36.6483 43.2505 36.2441 43.3852 36.3789 43.2505C36.6483 42.981 37.1873 43.3178 37.322 42.981C37.3894 42.8463 37.4568 42.7115 37.4568 42.5094L39.0062 42.442L52.8168 36.3115C54.2315 35.7052 55.9157 36.3115 56.5894 37.7262C56.7241 38.1978 56.7915 38.602 56.7915 38.9389Z" fill="#2F80ED"/>
<path d="M39.0063 42.5093C38.5347 42.8461 37.9284 43.0482 37.3221 43.0482H36.9178C36.9852 42.9135 37.0526 42.7788 37.12 42.5766L39.0063 42.5093Z" fill="white"/>
<path d="M9.09462 30.3831H16.1683C17.3809 30.3831 18.3915 31.3936 18.3915 32.6062V46.8883C18.3915 48.101 17.3809 49.1115 16.1683 49.1115H9.09462C7.88199 49.1115 6.87146 48.101 6.87146 46.8883V32.6736C6.87146 31.3936 7.88199 30.3831 9.09462 30.3831Z" fill="white"/>
<path d="M18.3915 32.6734V46.9555C18.3915 48.2355 17.381 49.246 16.101 49.246H13.8778C15.1578 49.246 16.1683 48.2355 16.1683 46.9555V32.6734C16.1683 31.4607 15.1578 30.4502 13.8778 30.4502H16.1683C17.381 30.4502 18.3915 31.3934 18.3915 32.6734Z" fill="#2F80ED"/>
<path d="M14.3494 34.964C14.3494 35.9072 13.6083 36.6482 12.6652 36.6482C11.722 36.6482 10.981 35.9072 10.981 34.964C10.981 34.0208 11.722 33.2798 12.6652 33.2798C13.541 33.2798 14.3494 34.0208 14.3494 34.964Z" fill="#2F80ED"/>
<path d="M57.6 24.3199C57.6 27.8904 54.7032 30.7199 51.1327 30.7199C47.5621 30.7199 44.7327 27.8231 44.7327 24.3199C44.7327 20.7494 47.6295 17.8525 51.1327 17.8525C54.7032 17.8525 57.6 20.7494 57.6 24.3199Z" fill="white"/>
<path d="M57.6 24.3199C57.6 27.8904 54.7032 30.7873 51.2 30.7873C50.9305 30.7873 50.6611 30.7873 50.3242 30.7199C53.4905 30.3157 55.9158 27.621 55.9158 24.3199C55.9158 21.0189 53.4905 18.3241 50.3242 17.9199C50.5937 17.8525 50.8632 17.8525 51.2 17.8525C54.7032 17.8525 57.6 20.7494 57.6 24.3199Z" fill="#2F80ED"/>
<path d="M29.0358 12.1936H29.7768V12.9347C29.7768 13.2041 29.9789 13.4062 30.2484 13.4736C30.5179 13.4736 30.72 13.2715 30.7874 13.002V12.261H31.5284C31.7979 12.261 32 12.0589 32.0674 11.7894C32.0674 11.5199 31.8653 11.3178 31.5958 11.2505H30.8547V10.5094C30.8547 10.2399 30.6526 10.0378 30.3832 9.97046C30.1137 9.97046 29.9116 10.1726 29.8442 10.442V11.1831H29.1032C28.8337 11.1831 28.6316 11.3852 28.5642 11.6547C28.5642 11.9241 28.7663 12.1936 29.0358 12.1936Z" fill="#2F80ED"/>
<path d="M63.259 37.7937L62.5854 37.5243L62.8548 36.8506C62.9222 36.5811 62.8548 36.3116 62.5854 36.2443C62.3159 36.1769 62.0464 36.2443 61.979 36.5137L61.7096 37.1874L61.0359 36.918C60.7664 36.8506 60.4969 36.918 60.4296 37.1874C60.3622 37.4569 60.4296 37.7264 60.699 37.8611L61.3727 38.1306L61.1033 38.8043C61.0359 39.0737 61.1033 39.3432 61.3727 39.4106C61.6422 39.4779 61.9117 39.4106 62.0464 39.1411L62.3159 38.4674L62.9896 38.7369C63.259 38.8043 63.5285 38.7369 63.5959 38.4674C63.5959 38.198 63.4611 37.8611 63.259 37.7937Z" fill="#2F80ED"/>
<path d="M5.25475 50.0547H1.88633C1.48212 50.0547 1.21265 50.3242 1.21265 50.7284C1.21265 51.1326 1.48212 51.4021 1.88633 51.4021H5.25475C5.65896 51.4021 5.92844 51.1326 5.92844 50.7284C5.92844 50.3242 5.65896 50.0547 5.25475 50.0547Z" fill="#2F80ED"/>
<path d="M62.5179 50.0547H60.0252C59.621 50.0547 59.3516 50.3242 59.3516 50.7284C59.3516 51.1326 59.621 51.4021 60.0252 51.4021H62.5179C62.9221 51.4021 63.1916 51.1326 63.1916 50.7284C63.1916 50.3242 62.9221 50.0547 62.5179 50.0547Z" fill="#2F80ED"/>
<path d="M39.3431 29.8442C39.8147 29.9115 40.2189 29.9789 40.6231 30.181C40.6905 30.181 40.7578 30.181 40.7578 30.181C40.8252 30.181 40.9599 30.1136 41.0273 30.1136C41.0947 30.0463 41.0947 29.9789 41.0947 29.8442C41.0947 29.7768 41.0947 29.7094 41.0273 29.642C40.9599 29.5747 40.9599 29.5073 40.8926 29.5073C40.421 29.3052 39.882 29.1705 39.3431 29.1031H39.141V28.4968C39.141 28.4294 39.141 28.362 39.0736 28.362C39.0736 28.2947 39.0063 28.2947 38.9389 28.2947C38.8715 28.2947 38.8041 28.2947 38.8041 28.362C38.7368 28.4294 38.7368 28.4294 38.7368 28.4968V29.1031H38.602C38.2652 29.1031 37.9957 29.2378 37.7936 29.3052C37.5241 29.4399 37.2547 29.642 37.1199 29.8442C36.9852 30.0463 36.8505 30.3157 36.8505 30.6526C36.8505 30.9894 36.9178 31.3263 37.1199 31.5284C37.322 31.7305 37.5241 31.9326 37.7936 31.9999C37.9957 32.0673 38.2652 32.202 38.602 32.2694L38.7368 32.3368V34.2231H38.5347C38.1978 34.2231 37.861 34.1557 37.5241 34.021C37.4568 34.021 37.3894 33.9536 37.322 33.9536C37.2547 33.9536 37.1873 33.9536 37.1199 34.0884C37.0526 34.1557 37.0526 34.2231 37.0526 34.3578C37.0526 34.4926 37.1199 34.6273 37.2547 34.6947C37.6589 34.8294 38.0631 34.8968 38.5347 34.9642H38.7368V35.5705C38.7368 35.6378 38.7368 35.7052 38.8041 35.7052C38.8715 35.7726 38.8715 35.7726 38.9389 35.7726C39.0063 35.7726 39.0736 35.7726 39.0736 35.7052C39.141 35.6378 39.141 35.6378 39.141 35.5705V34.9642H39.3431C39.6799 34.8968 39.9494 34.8294 40.2189 34.6947C40.4884 34.5599 40.7578 34.3578 40.8926 34.0884C41.0273 33.8189 41.0947 33.5494 41.0947 33.2799C41.0947 32.9431 41.0273 32.6736 40.8252 32.4715C40.6231 32.2694 40.421 32.0673 40.1515 31.9999C39.9494 31.9326 39.6799 31.7978 39.3431 31.7305L39.141 31.6631V29.8442H39.3431ZM38.7368 31.5957L38.4673 31.5284C38.1978 31.461 37.9957 31.3936 37.861 31.2589C37.6589 31.1242 37.5915 30.9894 37.5915 30.7873C37.5915 30.3157 37.9284 29.9789 38.5347 29.9115H38.7368V31.5957ZM39.4105 32.5389C39.6799 32.6063 39.882 32.741 40.0168 32.8084C40.2189 32.9431 40.2863 33.1452 40.2863 33.3473C40.2863 33.6168 40.1515 33.8189 39.9494 33.9536C39.8147 34.0884 39.6126 34.1557 39.3431 34.2231L39.141 34.2905V32.4715L39.4105 32.5389Z" fill="#2F80ED"/>
<path d="M58.2737 24.32C58.2737 20.4126 55.1074 17.179 51.1326 17.179C49.0442 17.179 47.0905 18.1221 45.8105 19.6042L22.7705 19.4695C21.4231 19.4695 20.3452 20.5474 20.3452 21.8274L20.2779 33.28C19.8737 33.2126 19.4021 33.1453 18.9979 33.0779V32.6063C18.9979 30.9895 17.6505 29.7095 16.101 29.7095H9.09472C7.47788 29.7095 6.19788 31.0569 6.19788 32.6063V46.8884C6.19788 48.5053 7.54524 49.7853 9.09472 49.7853H16.1684C17.5831 49.7853 18.7284 48.7747 18.9979 47.4947L25.6 49.9874H10.1726C9.7684 49.9874 9.49893 50.2568 9.49893 50.6611C9.49893 51.0653 9.7684 51.3347 10.1726 51.3347H55.7137C56.1179 51.3347 56.3874 51.0653 56.3874 50.6611C56.3874 50.2568 56.1179 49.9874 55.7137 49.9874H39.6126C40.1516 49.7853 40.6231 49.5832 41.1621 49.3137L55.5789 42.0379C57.2631 41.1621 58.0042 39.1411 57.1958 37.3895C56.7242 36.3116 55.781 35.6379 54.7031 35.3684V30.3158C56.8589 29.2379 58.2737 26.9474 58.2737 24.32ZM17.7179 46.9558C17.7179 47.8316 16.9768 48.5053 16.1684 48.5053H9.09472C8.21893 48.5053 7.54524 47.7642 7.54524 46.9558V32.6737C7.54524 31.7979 8.2863 31.1242 9.09472 31.1242H16.1684C17.0442 31.1242 17.7179 31.8653 17.7179 32.6737V46.9558ZM51.1326 18.5263C54.2989 18.5263 56.9263 21.0863 56.9263 24.32C56.9263 27.4863 54.3663 30.0463 51.1326 30.0463C47.9663 30.0463 45.4063 27.4863 45.4063 24.32C45.4063 21.1537 47.9663 18.5263 51.1326 18.5263ZM21.76 21.8947C21.76 21.2884 22.2316 20.8168 22.8379 20.8168L44.9347 20.9516C44.8 21.2211 44.6652 21.5579 44.5305 21.8274L25.7347 21.76C25.1284 21.76 24.5221 22.0295 24.0505 22.4337C23.5789 22.9053 23.3095 23.5116 23.3095 24.1179L23.2421 34.1558C22.7031 33.9537 22.2316 33.7516 21.6926 33.6169L21.76 21.8947ZM55.9158 38.0632C56.3874 39.1411 55.9831 40.4211 54.9052 40.96L40.5558 48.1684C38.1305 49.3811 35.3684 50.0547 32.6063 50.0547C30.4505 50.0547 28.3621 49.6505 26.4084 48.9095L19.0652 46.1474V34.4926C20.7495 34.6274 22.4337 35.1663 23.9158 36.0421C25.9368 37.1874 28.2274 37.7937 30.5852 37.7937H37.3221C38.5347 37.7937 39.5452 38.8042 39.5452 40.0842C39.5452 40.8253 39.141 41.499 38.6021 41.9032C38.6021 41.9032 38.6021 41.9032 38.5347 41.9032C38.1979 42.1726 37.7263 42.3074 37.2547 42.3074H27.3516C26.9473 42.3074 26.6779 42.5769 26.6779 42.9811C26.6779 43.3853 26.9473 43.6547 27.3516 43.6547H37.3895C38.1305 43.6547 38.8042 43.4526 39.3431 43.0484L53.0863 36.9179C54.1642 36.4463 55.4442 36.9853 55.9158 38.0632ZM53.3558 35.5032C53.0863 35.5705 52.8168 35.6379 52.5474 35.7726L40.8252 40.96C40.8926 40.6905 40.96 40.4211 40.96 40.0842C40.96 38.0632 39.3431 36.4463 37.3895 36.4463H30.6526C28.5642 36.4463 26.4758 35.9074 24.6568 34.8295L24.7242 24.1179C24.7242 23.8484 24.8589 23.579 25.061 23.3769C25.2631 23.1747 25.5326 23.04 25.8021 23.04L44.261 23.1074C44.1937 23.4442 44.1937 23.8484 44.1937 24.2526C44.1937 28.16 47.36 31.3263 51.2674 31.3263C52.0084 31.3263 52.7495 31.1916 53.4231 30.9895L53.3558 35.5032Z" fill="#2F80ED"/>
<path d="M47.9664 23.1747H51.2001C51.3348 23.1747 51.4022 23.2421 51.4022 23.3768V23.9831C51.4022 24.1179 51.6043 24.2526 51.739 24.1179L54.5011 22.2989C54.6359 22.2315 54.6359 22.0294 54.5011 21.9621L51.739 20.1431C51.6043 20.0758 51.4022 20.1431 51.4022 20.2779V20.8842C51.4022 21.0189 51.3348 21.0863 51.2001 21.0863H47.9664C47.8316 21.0863 47.7643 21.1537 47.7643 21.2884V22.9052C47.8317 23.04 47.899 23.1747 47.9664 23.1747Z" fill="#2F80ED"/>
<path d="M50.9305 28.2947V27.6884C50.9305 27.5537 50.9979 27.4863 51.1326 27.4863H54.3663C54.501 27.4863 54.5684 27.419 54.5684 27.2842V25.6674C54.5684 25.5326 54.501 25.4653 54.3663 25.4653H51.1326C50.9979 25.4653 50.9305 25.3979 50.9305 25.2632V24.6569C50.9305 24.5221 50.7284 24.3874 50.5936 24.5221L47.8989 26.2737C47.7642 26.3411 47.7642 26.5432 47.8989 26.6105L50.661 28.4295C50.7284 28.4969 50.9305 28.4295 50.9305 28.2947Z" fill="#2F80ED"/>
</svg>
