<svg width="64" height="64" viewBox="0 0 64 64" fill="none" xmlns="http://www.w3.org/2000/svg">
<path d="M55.6464 55.0398C53.1538 56.3872 50.0548 55.1072 47.899 53.2883C45.7432 51.4693 43.1159 48.1009 40.8927 46.4167C37.1875 43.6546 31.7306 43.4525 27.8232 45.8777C25.4654 47.2925 23.7138 49.5156 21.8275 51.5367C19.9411 53.5577 17.718 55.4441 15.0232 55.9156C11.7896 56.522 8.35378 54.9051 6.53483 52.143C4.71588 49.4483 4.37904 45.8777 5.3222 42.7114C6.33272 39.6125 8.55588 36.9177 11.2506 35.0988C13.6085 33.482 16.6401 31.9999 17.0443 29.2377C17.3811 26.8125 15.6969 25.0609 14.7538 22.9725C13.8106 20.9514 13.2043 18.7283 12.9348 16.5051C12.7327 14.8883 12.7327 13.2041 13.5411 11.8567C14.9559 9.4988 18.5264 9.09459 20.9517 10.5093C23.3769 11.9241 24.7917 14.5514 25.6675 17.1788C26.0043 18.1893 26.2738 19.1999 26.8127 20.0756C27.3517 20.9514 28.1601 21.7599 29.1706 21.962C30.2485 22.1641 31.3938 21.6925 32.2022 20.8841C33.4822 19.6041 33.9538 17.6504 34.8296 16.0335C35.8401 14.282 36.9854 12.5304 38.4675 11.1156C40.4885 9.22933 43.1159 7.94933 45.878 8.0167C48.6401 8.08407 51.4022 9.76828 52.3453 12.3283C53.2885 14.8883 52.3453 17.7177 50.8632 20.0083C49.3811 22.2988 47.3601 24.1851 45.878 26.4083C44.3285 28.6314 43.318 31.4609 44.059 34.0209C45.2043 36.1093 47.3601 36.783 49.8527 38.8041C52.3453 40.8251 56.0506 43.722 57.4654 46.5514C58.9475 49.4483 58.4759 53.4904 55.6464 55.0398Z" fill="#2B88D8" fill-opacity="0.17"/>
<path d="M57.8695 37.3893C57.8695 37.6587 57.6 37.8608 57.3305 37.8608H56.5895V38.6019C56.5895 38.8714 56.32 39.0735 56.0505 39.0735C55.7811 39.0735 55.579 38.8714 55.579 38.5345V37.7935H54.8379C54.5684 37.7935 54.3663 37.524 54.3663 37.2545C54.3663 36.985 54.5684 36.7829 54.9053 36.7829H55.6463V36.0419C55.6463 35.7724 55.9158 35.5703 56.1853 35.5703C56.4548 35.5703 56.6569 35.8398 56.6569 36.1093V36.8503H57.3979C57.6674 36.9177 57.8695 37.1198 57.8695 37.3893Z" fill="#2B88D8" fill-opacity="0.17"/>
<path d="M29.0359 54.3663C29.0359 54.6358 28.7664 54.8379 28.4969 54.8379H27.7559V55.5789C27.7559 55.8484 27.4864 56.0505 27.2169 56.0505C26.9475 56.0505 26.7453 55.8484 26.7453 55.5116V54.7705H26.0043C25.7348 54.7705 25.5327 54.501 25.5327 54.2316C25.5327 53.9621 25.7348 53.76 26.0717 53.76H26.8127V53.0189C26.8127 52.7495 27.0822 52.5474 27.3517 52.5474C27.6211 52.5474 27.8232 52.8168 27.8232 53.0863V53.8274H28.5643C28.8338 53.8274 29.0359 54.0968 29.0359 54.3663Z" fill="#2B88D8" fill-opacity="0.17"/>
<path d="M37.659 13.4736V48.2357C37.659 49.5157 36.6485 50.5936 35.3011 50.5936H12.8C11.52 50.5936 10.4421 49.5831 10.4421 48.2357V13.4736C10.4421 12.1936 11.4527 11.1157 12.8 11.1157H35.3011C36.6485 11.1157 37.659 12.1936 37.659 13.4736Z" fill="white"/>
<path d="M35.3685 11.1157H35.1664V50.5262H35.3685C36.6485 50.5262 37.7264 49.5157 37.7264 48.1684V13.4736C37.659 12.1936 36.6485 11.1157 35.3685 11.1157Z" fill="#2B88D8" fill-opacity="0.17"/>
<g opacity="0.3">
<g opacity="0.3">
<g opacity="0.3">
<g opacity="0.3">
<path opacity="0.3" d="M37.6591 16.9766V35.705C37.3896 35.705 37.0527 35.6376 36.7833 35.5029C36.0422 35.166 35.638 34.425 35.638 33.6839V33.0102C34.1559 32.606 33.1454 31.2587 33.1454 29.7092V20.4797C33.1454 18.5934 34.6949 16.9766 36.5812 16.9766H37.6591Z" fill="#2B88D8" fill-opacity="0.17"/>
</g>
</g>
</g>
</g>
<path d="M32.9431 26.4757V35.2336C32.9431 36.0421 32.2694 36.7831 31.3936 36.7831H16.7747C15.9663 36.7831 15.2252 36.1094 15.2252 35.2336V26.4757C15.2252 25.6673 15.8989 24.9263 16.7747 24.9263H31.3936C32.2021 24.9263 32.9431 25.6 32.9431 26.4757Z" fill="white"/>
<path d="M32.8757 27.4863H15.2252V30.3832H32.8757V27.4863Z" fill="#2B88D8" fill-opacity="0.17"/>
<path d="M29.5747 33.2126C29.5747 34.021 28.901 34.6273 28.16 34.6273C27.3516 34.6273 26.7452 33.9536 26.7452 33.2126C26.7452 32.4715 27.4189 31.7979 28.16 31.7979C28.9684 31.7979 29.5747 32.4715 29.5747 33.2126Z" fill="#2F80ED"/>
<path d="M31.0569 33.2126C31.0569 34.021 30.3832 34.6273 29.6422 34.6273C28.8337 34.6273 28.2274 33.9536 28.2274 33.2126C28.2274 32.4715 28.9011 31.7979 29.6422 31.7979C30.3832 31.7979 31.0569 32.4715 31.0569 33.2126Z" fill="#2B88D8" fill-opacity="0.17"/>
<path d="M23.1073 33.2128C23.1073 33.5496 22.8378 33.8191 22.5009 33.8191H20.682C20.3452 33.8191 20.0757 33.5496 20.0757 33.2128C20.0757 32.8759 20.3452 32.6064 20.682 32.6064H22.5009C22.8378 32.6738 23.1073 32.9433 23.1073 33.2128Z" fill="#2B88D8" fill-opacity="0.17"/>
<path d="M19.5367 33.2128C19.5367 33.5496 19.2672 33.8191 18.9304 33.8191H17.7178C17.3809 33.8191 17.1115 33.5496 17.1115 33.2128C17.1115 32.8759 17.3809 32.6064 17.7178 32.6064H18.9304C19.2672 32.6738 19.5367 32.9433 19.5367 33.2128Z" fill="#2B88D8" fill-opacity="0.17"/>
<path d="M26.0715 33.2128C26.0715 33.5496 25.802 33.8191 25.4652 33.8191H24.2526C23.9157 33.8191 23.6462 33.5496 23.6462 33.2128C23.6462 32.8759 23.9157 32.6064 24.2526 32.6064H25.4652C25.8694 32.6738 26.0715 32.9433 26.0715 33.2128Z" fill="#2B88D8" fill-opacity="0.17"/>
<path d="M53.4906 20.4797V29.6418C53.4906 30.4502 52.8169 31.1239 52.0085 31.1239H41.0274C40.8253 31.1239 40.5559 31.1912 40.4211 31.326L37.659 33.6165V31.5281C37.659 31.2586 37.4569 31.0565 37.1874 31.0565H36.6485C35.8401 31.0565 35.1664 30.3828 35.1664 29.5744V20.4797C35.1664 19.6712 35.8401 18.9976 36.6485 18.9976H52.0759C52.8169 18.9976 53.4906 19.6712 53.4906 20.4797Z" fill="white"/>
<path d="M53.4906 20.4797V29.6418C53.4906 30.4502 52.817 31.1239 52.0085 31.1239H49.718C50.5264 31.1239 51.1328 30.4502 51.1328 29.6418V20.4797C51.1328 19.6712 50.4591 18.9976 49.718 18.9976H52.0085C52.817 18.9976 53.4906 19.6712 53.4906 20.4797Z" fill="#2B88D8" fill-opacity="0.17"/>
<path d="M48.1684 24.9933C48.101 27.1491 46.3495 28.8333 44.261 28.7659C42.1052 28.6986 40.421 26.947 40.4884 24.8586C40.5558 22.7028 42.3074 21.0186 44.3958 21.0859C46.5516 21.0859 48.2358 22.9049 48.1684 24.9933Z" fill="#2B88D8" fill-opacity="0.17"/>
<path d="M6.06322 13.6081L5.38954 13.5408L5.45691 12.8671C5.45691 12.5976 5.2548 12.3281 4.98533 12.3281C4.71586 12.3281 4.44638 12.5302 4.44638 12.7997L4.37901 13.4734L3.70533 13.406C3.43586 13.406 3.16638 13.6081 3.16638 13.8776C3.16638 14.1471 3.36849 14.4165 3.63796 14.4165L4.31165 14.4839L4.24428 15.1576C4.24428 15.4271 4.44638 15.6965 4.71586 15.6965C4.98533 15.6965 5.2548 15.4944 5.2548 15.225L5.32217 14.5513L5.99586 14.6187C6.26533 14.6187 6.5348 14.4165 6.5348 14.1471C6.5348 13.8776 6.3327 13.6755 6.06322 13.6081Z" fill="#2F80ED"/>
<path d="M57.0611 15.4273H57.8021V16.1683C57.8021 16.4378 58.0042 16.6399 58.2737 16.7073C58.5432 16.7073 58.7453 16.5052 58.8126 16.2357V15.4946H59.5537C59.8232 15.4946 60.0253 15.2925 60.0926 15.023C60.0926 14.7536 59.8905 14.5515 59.6211 14.4841H58.88V13.743C58.88 13.4736 58.6779 13.2715 58.4084 13.2041C58.1389 13.2041 57.9368 13.4062 57.8695 13.6757V14.4167H57.1284C56.859 14.4167 56.6568 14.6188 56.5895 14.8883C56.5895 15.1578 56.7916 15.4273 57.0611 15.4273Z" fill="#2F80ED"/>
<path d="M4.51371 49.9194H2.49265C2.08844 49.9194 1.81897 50.2563 1.81897 50.5931C1.81897 50.93 2.08844 51.2668 2.49265 51.2668H4.51371C4.91792 51.2668 5.18739 50.93 5.18739 50.5931C5.18739 50.2563 4.85055 49.9194 4.51371 49.9194Z" fill="#2F80ED"/>
<path d="M61.5073 49.7852L45.1368 49.8525C44.7326 49.8525 44.4631 50.1894 44.4631 50.5262C44.4631 50.863 44.7326 51.1999 45.1368 51.1999L61.5073 51.1325C61.9116 51.1325 62.181 50.7957 62.181 50.4588C62.181 50.122 61.9116 49.7852 61.5073 49.7852Z" fill="#2F80ED"/>
<path d="M24.0505 46.9556C23.4442 46.9556 22.9053 47.4945 22.9053 48.1008C22.9053 48.7071 23.4442 49.2461 24.0505 49.2461C24.6569 49.2461 25.1958 48.7071 25.1958 48.1008C25.1958 47.4945 24.7242 46.9556 24.0505 46.9556Z" fill="#2F80ED"/>
<path d="M23.7811 14.2819H27.8906C28.2948 14.2819 28.5643 13.9451 28.5643 13.6083C28.5643 13.204 28.2274 12.9346 27.8906 12.9346H23.7811C23.3769 12.9346 23.1074 13.2714 23.1074 13.6083C23.1074 13.9451 23.3769 14.2819 23.7811 14.2819Z" fill="#2F80ED"/>
<path d="M20.2779 14.2819H21.0863C21.4906 14.2819 21.76 13.9451 21.76 13.6083C21.76 13.204 21.4232 12.9346 21.0863 12.9346H20.2779C19.8737 12.9346 19.6042 13.2714 19.6042 13.6083C19.6042 13.9451 19.8737 14.2819 20.2779 14.2819Z" fill="#2F80ED"/>
<path d="M31.3937 24.2524H16.7748C15.5622 24.2524 14.5516 25.263 14.5516 26.4756V35.2335C14.5516 36.4461 15.5622 37.4567 16.7748 37.4567H31.3937C32.6064 37.4567 33.6169 36.4461 33.6169 35.2335V26.4756C33.6169 25.263 32.6064 24.2524 31.3937 24.2524ZM32.2695 35.2335C32.2695 35.7051 31.8653 36.1093 31.3937 36.1093H16.7748C16.3032 36.1093 15.899 35.7051 15.899 35.2335V26.4756C15.899 26.004 16.3032 25.5998 16.7748 25.5998H31.3937C31.8653 25.5998 32.2695 26.004 32.2695 26.4756V35.2335Z" fill="#2F80ED"/>
<path d="M54.1643 29.6419V20.4798C54.1643 19.3345 53.2211 18.324 52.0085 18.324H38.3327C38.3327 18.1893 38.3327 13.2714 38.3327 13.4735C38.3327 11.7893 36.9853 10.4419 35.3011 10.4419H12.8001C11.1158 10.4419 9.76848 11.7893 9.76848 13.4735C9.76848 26.3408 9.76848 35.4356 9.76848 48.2356C9.76848 48.8419 9.97059 49.4482 10.3074 49.9198H7.8148C7.41059 49.9198 7.14111 50.2566 7.14111 50.5935C7.14111 50.9303 7.41059 51.2672 7.8148 51.2672C14.4169 51.2672 33.3474 51.1998 39.6801 51.1998C40.0843 51.1998 40.3537 50.863 40.3537 50.5261C40.3537 50.1893 40.0843 49.8524 39.6801 49.8524H37.7264C38.0632 49.3808 38.198 48.8419 38.198 48.2356C38.198 43.1156 38.198 39.343 38.198 34.0208L40.6906 31.9324C40.758 31.8651 40.8253 31.8651 40.8927 31.8651H51.8737C53.2211 31.7977 54.1643 30.7872 54.1643 29.6419ZM36.5811 18.324C35.4359 18.324 34.4253 19.2672 34.4253 20.4798V29.6419C34.4253 30.7872 35.3685 31.7977 36.5811 31.7977H36.9853C36.9853 51.8735 36.9853 42.3072 36.9853 45.0019H11.1832V16.7072H36.9853V18.324H36.5811ZM12.8001 11.7893H35.3011C36.2443 11.7893 36.9853 12.5303 36.9853 13.4735V15.3598H11.1832V13.4735C11.1832 12.5303 11.9243 11.7893 12.8001 11.7893ZM12.8001 49.8524C11.8569 49.8524 11.1158 49.1114 11.1158 48.1682V46.2819H36.918V48.1682C36.918 49.1114 36.1769 49.8524 35.3011 49.8524C1.07796 49.8524 17.4485 49.8524 12.8001 49.8524ZM39.9495 30.7872L38.3327 32.2019C38.3327 32.1345 38.3327 31.5956 38.3327 31.663V31.5956C38.3327 30.9893 37.7937 30.4503 37.1874 30.4503H36.6485C36.2443 30.4503 35.8401 30.1135 35.8401 29.6419V20.4798C35.8401 20.0756 36.1769 19.6714 36.6485 19.6714H52.0759C52.4801 19.6714 52.8843 20.0082 52.8843 20.4798V29.6419C52.8843 30.0461 52.5474 30.4503 52.0759 30.4503H41.0274C40.6232 30.4503 40.2864 30.5851 39.9495 30.7872Z" fill="#2F80ED"/>
<path d="M45.1368 24.9262C45.0021 24.8588 44.8 24.7915 44.5305 24.7241H44.3958V23.3767H44.5305C44.8 23.3767 45.0021 23.4441 45.2042 23.5115C45.2716 23.5115 45.2716 23.5115 45.3389 23.5115C45.4063 23.5115 45.4063 23.5115 45.4737 23.4441C45.541 23.3767 45.541 23.3094 45.541 23.242C45.541 23.1073 45.4737 23.0399 45.4063 22.9725C45.1368 22.8378 44.8 22.8378 44.5305 22.7704L44.4631 22.9051V22.5009C44.4631 22.4336 44.4631 22.4336 44.3958 22.3662L44.3284 22.2988C44.261 22.2988 44.261 22.2988 44.261 22.3662C44.261 22.3662 44.1937 22.4336 44.1937 22.5009V22.9051H44.0589C43.8568 22.9051 43.5874 22.9725 43.4526 23.1072C43.2505 23.242 43.1158 23.3767 42.981 23.5115C42.8463 23.7136 42.8463 23.8483 42.8463 24.1178C42.8463 24.3872 42.9137 24.522 43.0484 24.7241C43.1831 24.8588 43.3179 24.9936 43.52 25.0609C43.6547 25.1283 43.8568 25.1957 44.1263 25.263H44.1937V26.543H44.0589C43.7221 26.543 43.4526 26.4757 43.1831 26.3409C43.1158 26.3409 43.1158 26.3409 43.0484 26.3409C42.981 26.3409 42.9137 26.3409 42.8463 26.4083C42.7789 26.4757 42.7789 26.543 42.7789 26.6104C42.7789 26.6778 42.7789 26.6778 42.8463 26.7451C42.8463 26.8125 42.9137 26.8125 42.981 26.8125C43.3179 26.9472 43.7221 27.082 44.0589 27.082H44.1937V27.4862C44.1937 27.5536 44.1937 27.5536 44.261 27.5536L44.3284 27.6209C44.3958 27.6209 44.3958 27.6209 44.4631 27.5536L44.5305 27.4862V27.082H44.6652C44.8674 27.082 45.0695 27.0146 45.2716 26.9472C45.4737 26.8799 45.6084 26.7451 45.7431 26.543C45.8779 26.4083 45.9452 26.2062 45.9452 26.0041C45.9452 25.7346 45.8779 25.5325 45.7431 25.3978C45.4737 25.1283 45.3389 24.9936 45.1368 24.9262ZM44.1937 24.6567L43.9916 24.5894C43.7895 24.522 43.6547 24.4546 43.5873 24.3873C43.4526 24.3199 43.3852 24.1851 43.3852 23.983C43.3852 23.7809 43.4526 23.6462 43.5873 23.5788C43.7221 23.5115 43.8568 23.4441 43.9916 23.3767H44.1263L44.1937 24.6567ZM44.5979 26.4757H44.4631V25.263L44.6652 25.3304C44.8674 25.3978 45.0021 25.4651 45.0695 25.5325C45.2042 25.5999 45.2716 25.7346 45.2716 25.8694C45.2716 26.2062 45.0695 26.4083 44.5979 26.4757Z" fill="#2F80ED"/>
</svg>
