<svg width="68" height="68" viewBox="0 0 68 68" fill="none" xmlns="http://www.w3.org/2000/svg">
<path d="M59.1959 25.9118C56.118 27.9875 52.5391 29.2044 49.5327 31.3518C46.5264 33.5707 44.1643 37.2928 45.3096 40.8718C46.0254 43.3054 48.1728 44.9518 49.2464 47.2423C50.6064 50.2486 49.8191 54.0423 47.5285 56.476C45.238 58.8381 41.6591 59.8402 38.438 59.2675C35.1454 58.6949 32.2822 56.6191 30.3496 53.9707C29.0612 52.1812 28.2022 50.1054 26.9138 48.316C25.697 46.5265 23.9075 44.8802 21.6885 44.5223C17.4654 43.9497 13.8149 48.4591 9.52012 48.1728C6.80012 47.9581 4.43801 45.596 3.86538 42.9475C3.29275 40.2991 4.22327 37.436 6.01275 35.3602C7.80222 33.2844 10.3075 31.9244 12.9559 31.2086C14.7454 30.7075 16.6064 30.4212 18.3959 29.777C20.1854 29.1328 21.8317 28.0591 22.7622 26.4128C24.9096 22.2612 21.1159 17.036 22.7622 12.7412C23.6927 10.236 26.4843 8.66123 29.1327 8.73281C31.7812 8.80439 34.358 10.236 36.0043 12.3118C37.0064 13.5286 38.2949 18.5391 39.5117 18.9686C40.9433 19.3981 45.5959 14.7454 46.8843 13.8865C49.8191 12.0254 53.1833 10.5939 56.6191 10.8086C60.0549 11.0949 63.4906 13.457 64.1349 16.8212C64.8506 20.3286 62.2738 23.836 59.1959 25.9118Z" fill="#1761C5" fill-opacity="0.13"/>
<path d="M26.4844 57.1916C26.4844 56.9769 26.6991 56.7622 26.9138 56.7622H27.5581V56.1179C27.5581 55.9032 27.7728 55.6885 27.9875 55.6885C28.2023 55.6885 28.417 55.9032 28.417 56.1179V56.7622H29.0612C29.276 56.7622 29.4907 56.9769 29.4907 57.1916C29.4907 57.4064 29.276 57.6211 29.0612 57.6211H28.417V58.2653C28.417 58.4801 28.2023 58.6948 27.9875 58.6948C27.7728 58.6948 27.5581 58.4801 27.5581 58.2653V57.6211H26.9138C26.6991 57.6211 26.4844 57.478 26.4844 57.1916Z" fill="#1761C5" fill-opacity="0.13"/>
<path d="M6.29901 14.6026C6.29901 14.8889 6.01269 15.1036 5.72638 15.1036H4.93901V15.891C4.93901 16.1773 4.65269 16.392 4.36638 16.392C4.08006 16.392 3.86533 16.1773 3.86533 15.8194V15.032H3.07796C2.79164 15.032 2.5769 14.7457 2.5769 14.4594C2.5769 14.1731 2.79164 13.9583 3.14954 13.9583H3.9369V13.171C3.9369 12.8847 4.22322 12.6699 4.50954 12.6699C4.79585 12.6699 5.01059 12.9562 5.01059 13.2426V14.0299H5.79796C6.01269 14.0299 6.29901 14.3162 6.29901 14.6026Z" fill="#1761C5" fill-opacity="0.13"/>
<path d="M52.7538 31.4948L52.6822 34.7875C52.6822 35.217 52.3959 35.6464 51.8949 35.7896L48.3159 36.7917C47.958 36.8633 47.6717 37.1496 47.6001 37.5075C47.6001 37.5791 47.6001 37.5791 47.5286 37.6506C47.1707 38.8675 46.6696 40.0127 46.0254 41.0864C45.8107 41.3727 45.8107 41.8022 45.9538 42.0885L48.0296 46.097L44.5222 49.3896L40.8001 47.3138L40.5854 47.1706C40.2991 47.0275 39.8696 47.0275 39.5833 47.1706C38.438 47.8148 37.2212 48.2443 35.9328 48.6022C35.5749 48.6738 35.2886 48.9601 35.217 49.2464L34.1433 52.4675C33.9286 53.1833 33.4991 53.5412 32.998 53.4696L29.7054 53.398C29.2759 53.398 28.8464 53.1117 28.7033 52.6106L27.7012 49.0317C27.6296 48.6738 27.3433 48.4591 26.9854 48.3159C25.7685 47.958 24.5517 47.3854 23.4064 46.7412C23.1201 46.5264 22.6907 46.5264 22.4043 46.6696L19.0401 48.3159C18.6107 48.5306 18.1096 48.4591 17.8233 48.1012L15.5328 45.7391C15.2464 45.3812 15.1749 44.8801 15.3896 44.5222L17.2507 41.3012C17.4654 41.0148 17.3938 40.5854 17.2507 40.2991C16.6064 39.1538 16.177 37.937 15.8191 36.6485C15.7475 36.2906 15.4612 36.0043 15.1749 35.9327L11.8822 34.8591C11.1664 34.6443 10.8801 34.2148 10.8801 33.7138L10.9517 30.4212C10.9517 29.9917 11.238 29.5622 11.7391 29.4191L15.318 28.417C15.6759 28.3454 15.8907 28.0591 16.0338 27.7012C16.3917 26.4843 16.9643 25.2675 17.6085 24.1222C17.8233 23.8359 17.8233 23.478 17.6801 23.1201L16.1054 20.0422C15.7475 19.3264 15.8191 18.8254 16.177 18.5391L18.5391 16.3201C18.897 15.9622 19.398 15.9622 19.7559 16.177L22.7622 17.8948C23.3349 18.2527 23.6928 18.1812 24.0507 18.038C25.1959 17.3938 26.4128 16.9643 27.7012 16.6064C28.0591 16.5348 28.3454 16.2485 28.417 15.8906L29.4907 12.6696C29.7054 11.9538 30.1349 11.6675 30.6359 11.6675L33.9286 11.7391C34.4296 11.7391 34.7875 12.097 34.9307 12.5264L35.9328 16.1054C36.0043 16.4633 36.2907 16.7496 36.6486 16.8212C37.8654 17.1791 39.0822 17.7517 40.2275 18.3959C40.5138 18.6106 40.9433 18.6106 41.2296 18.3959L44.5938 16.678C45.0233 16.4633 45.5243 16.5348 45.8107 16.8927L48.1012 19.2548C48.3875 19.6127 48.4591 20.1138 48.2443 20.4717L46.4549 23.6927C46.2401 23.9791 46.2401 24.4085 46.4549 24.6948C47.0991 25.8401 47.6717 26.9854 47.8864 28.2022C47.958 28.5601 48.2443 28.9896 48.6738 29.1327L51.8233 30.1348C52.4675 30.5643 52.7538 30.9938 52.7538 31.4948Z" fill="white"/>
<path d="M52.7537 31.4947L52.6822 34.7873C52.6822 35.2883 52.3959 35.6462 51.8948 35.7894L48.3159 36.7915C47.958 36.8631 47.6716 37.1494 47.6001 37.5073C47.2422 38.7241 46.6695 39.941 46.0253 41.0862C45.8822 41.3726 45.8106 41.802 45.9537 42.0883L48.0295 46.0968L44.5222 49.3894L42.3032 48.1726L44.5222 46.0968L42.4464 42.0883C42.3032 41.802 42.3032 41.3726 42.518 41.0862C43.1622 39.941 43.7348 38.7241 44.0927 37.5073C44.1643 37.1494 44.4506 36.8631 44.8085 36.7915L48.3874 35.7894C48.8169 35.6462 49.1748 35.2883 49.1748 34.7873L49.2464 31.4947C49.2464 31.0652 48.9601 30.6357 48.2443 30.3494L45.0948 29.3473C44.7369 29.2041 44.379 28.7747 44.3074 28.4168C44.0927 27.1999 43.5201 26.0547 42.8759 24.9094C42.6611 24.5515 42.6611 24.1936 42.8759 23.8357L44.6653 20.6147C44.8801 20.1852 44.8085 19.6841 44.5222 19.3978L42.8759 17.6799L44.5222 16.821C44.9516 16.6062 45.4527 16.6778 45.739 17.0357L48.0295 19.3978C48.3159 19.7557 48.3874 20.2568 48.1727 20.6147L46.3832 23.8357C46.2401 24.1936 46.2401 24.5515 46.3832 24.9094C47.0274 25.9831 47.6001 27.1999 47.8148 28.4168C47.8864 28.7747 48.1727 29.2041 48.6022 29.3473L51.7516 30.3494C52.4674 30.5641 52.7537 30.9936 52.7537 31.4947Z" fill="#1761C5" fill-opacity="0.13"/>
<g opacity="0.3">
<g opacity="0.3">
<g opacity="0.3">
<path opacity="0.3" d="M48.0296 46.097L44.5222 49.3896L40.8001 47.3138C40.8001 47.0275 40.7285 46.7412 40.7285 46.4549C40.7285 42.2317 43.5917 38.6528 47.5285 37.5791C47.1706 38.7959 46.6696 39.9412 46.0254 41.0149C45.8106 41.3012 45.8106 41.7307 45.9538 42.017L48.0296 46.097Z" fill="#1761C5" fill-opacity="0.13"/>
</g>
</g>
</g>
<path d="M31.8528 40.6567C36.2804 40.6567 39.8696 37.0675 39.8696 32.6399C39.8696 28.2123 36.2804 24.623 31.8528 24.623C27.4252 24.623 23.8359 28.2123 23.8359 32.6399C23.8359 37.0675 27.4252 40.6567 31.8528 40.6567Z" fill="#1761C5" fill-opacity="0.13"/>
<path d="M57.0484 46.5265C57.0484 50.4633 53.8989 53.6128 49.9621 53.6128C46.0252 53.6128 42.8757 50.4633 42.8757 46.5265C42.8757 42.5896 46.0252 39.4401 49.9621 39.4401C53.8989 39.3686 57.0484 42.5896 57.0484 46.5265Z" fill="white"/>
<path d="M57.0482 46.455C57.0482 50.3918 53.8988 53.5413 49.9619 53.5413C49.5324 53.5413 49.1745 53.5413 48.8167 53.4697C52.1809 52.8971 54.7577 50.0339 54.7577 46.455C54.7577 42.876 52.1809 40.0129 48.8167 39.4402C49.1745 39.3687 49.604 39.3687 49.9619 39.3687C53.8988 39.3687 57.0482 42.5897 57.0482 46.455Z" fill="#1761C5" fill-opacity="0.13"/>
<path d="M63.4906 32.3538H64.2779V33.1412C64.2779 33.4275 64.4927 33.6422 64.779 33.7138C65.0653 33.7138 65.28 33.4991 65.3516 33.2128V32.4254H66.139C66.4253 32.4254 66.64 32.2106 66.7116 31.9243C66.7116 31.638 66.4969 31.4233 66.2106 31.3517H65.4232V30.5643C65.4232 30.278 65.2084 30.0633 64.9221 29.9917C64.6358 29.9917 64.4211 30.2064 64.3495 30.4928V31.2801H63.5621C63.2758 31.2801 63.0611 31.4949 62.9895 31.7812C62.9895 32.0675 63.2042 32.3538 63.4906 32.3538Z" fill="#2F80ED"/>
<path d="M6.79996 44.9514L7.51575 44.6651L7.80206 45.3809C7.94522 45.6672 8.23153 45.7388 8.51785 45.6672C8.80417 45.524 8.94732 45.2377 8.80417 44.9514L8.51785 44.2356L9.23364 43.9493C9.51996 43.8061 9.59153 43.5198 9.51996 43.2335C9.3768 42.9472 9.09048 42.8756 8.80417 42.9472L8.08838 43.2335L7.80206 42.5177C7.6589 42.2314 7.37259 42.1598 7.08627 42.2314C6.79996 42.3745 6.72838 42.6609 6.79996 42.9472L7.08627 43.663L6.37048 43.9493C6.08417 44.0924 6.01259 44.3788 6.08417 44.6651C6.22732 44.9514 6.58522 45.0945 6.79996 44.9514Z" fill="#2F80ED"/>
<path d="M66.2105 52.8252H63.7768C63.3474 52.8252 63.061 53.1115 63.061 53.541C63.061 53.9705 63.3474 54.2568 63.7768 54.2568H66.2105C66.64 54.2568 66.9263 53.9705 66.9263 53.541C66.9263 53.1115 66.64 52.8252 66.2105 52.8252Z" fill="#2F80ED"/>
<path d="M58.8378 52.8252H54.4715C56.4757 51.3937 57.7642 49.1031 57.7642 46.4547C57.7642 42.16 54.2568 38.6526 49.9621 38.6526C49.1747 38.6526 48.4589 38.7958 47.7431 39.0105C47.9579 38.581 48.101 38.1516 48.2442 37.6505C48.2442 37.5074 48.3873 37.4358 48.4589 37.4358L52.0378 36.4337C52.8252 36.2189 53.3263 35.5747 53.3263 34.7874L53.3979 31.4947C53.3979 31.0653 53.2547 30.1347 51.8947 29.7052L48.8168 28.6316C48.7452 28.6316 48.6021 28.4168 48.5305 28.2737C48.3158 26.9137 47.6 25.6253 47.0273 24.5516C46.9557 24.48 46.9557 24.3368 47.0273 24.1937L48.8168 20.9726C49.1747 20.2568 49.1031 19.4695 48.5305 18.8968L46.24 16.5347C45.6673 15.9621 44.88 15.8189 44.1642 16.1768L40.8715 17.8947C40.8 17.9663 40.6568 17.9663 40.5852 17.8947C39.44 17.1789 38.1515 16.6779 36.8631 16.2484C36.72 16.1768 36.6484 16.1053 36.6484 16.0337L35.6463 12.4547C35.4315 11.6674 34.7873 11.1663 34 11.1663L30.7073 11.0947C30.3494 11.0947 29.3473 11.2379 28.9179 12.5979L27.8442 15.8905C27.8442 15.9621 27.701 16.0337 27.6294 16.1053C26.341 16.4631 25.0526 16.9642 23.8357 17.6084C23.7642 17.6084 23.6926 17.68 23.2631 17.4653L20.2568 15.7474C19.541 15.3895 18.7536 15.461 18.181 16.0337L15.8189 18.3242C15.5326 18.6105 14.96 19.3979 15.6042 20.6863L17.1789 23.7642C17.2505 23.8358 17.2505 23.9789 17.1789 24.0505C16.4631 25.1958 15.9621 26.4842 15.5326 27.7726C15.5326 27.9158 15.3894 27.9874 15.3179 27.9874L11.7389 28.9895C10.9515 29.2042 10.4505 29.8484 10.4505 30.6358L10.3789 33.9284C10.3789 34.3579 10.5221 35.2884 11.8821 35.7179L15.1031 36.7916C15.1747 36.7916 15.2463 36.9347 15.3179 37.0063C15.6757 38.2947 16.1768 39.5831 16.821 40.8C16.8926 40.9431 16.8926 41.0147 16.821 41.1579L14.96 44.4505C14.6021 45.1663 14.6736 45.9537 15.2463 46.5263L17.5368 48.8884C18.1094 49.461 18.8968 49.6042 19.6126 49.2463L22.9768 47.5284C23.0484 47.4568 23.1915 47.4568 23.2631 47.5284C24.4084 48.2442 25.6968 48.7452 26.9852 49.1747C27.1284 49.2463 27.2 49.3179 27.2 49.3895L28.2021 52.8968H21.1873C20.7579 52.8968 20.4715 53.1831 20.4715 53.6126C20.4715 54.0421 20.7579 54.3284 21.1873 54.3284H59.0526C59.4821 54.3284 59.7684 54.0421 59.7684 53.6126C59.7684 53.1831 59.2673 52.8252 58.8378 52.8252ZM56.3326 46.5263C56.3326 50.0337 53.4694 52.8968 49.9621 52.8968C46.4547 52.8968 43.5915 50.0337 43.5915 46.5263C43.5915 43.0189 46.4547 40.1558 49.9621 40.1558C53.4694 40.0842 56.3326 42.9474 56.3326 46.5263ZM27.2715 47.7431C26.0547 47.3852 24.9094 46.8842 23.8357 46.24C23.3347 45.9537 22.6905 45.8821 22.1179 46.1684L18.7536 47.8863C18.6105 47.9579 18.4673 47.9579 18.3242 47.8147L16.0336 45.4526C15.9621 45.3095 15.8905 45.1663 15.9621 45.0231L17.8231 41.7305C18.1094 41.2295 18.1094 40.5853 17.8231 40.0126C17.2505 38.9389 16.7494 37.7221 16.4631 36.5052C16.32 35.9326 15.8905 35.4316 15.3179 35.2884L12.1684 34.2863C11.9536 34.2147 11.6673 34.0716 11.6673 33.8568L11.7389 30.5642C11.7389 30.421 11.8105 30.2779 11.9536 30.2779L15.5326 29.2758C16.1052 29.1326 16.5347 28.6316 16.7494 28.0589C17.1073 26.8421 17.6084 25.6968 18.2526 24.6231C18.5389 24.1221 18.6105 23.4779 18.3242 22.9053L16.7494 19.8274C16.6063 19.6126 16.5347 19.3263 16.6779 19.1831L19.04 16.8926C19.1115 16.821 19.3263 16.7495 19.4694 16.821L22.4757 18.5389C23.1915 18.9684 23.8357 19.04 24.4084 18.6821C25.4821 18.1095 26.6989 17.6084 27.9157 17.3221C28.4884 17.1789 28.9894 16.7495 29.1326 16.1768L30.2063 12.8842C30.2779 12.6695 30.421 12.3831 30.6357 12.3831L33.9284 12.4547C34.0715 12.4547 34.2147 12.5263 34.2147 12.6695L35.2168 16.2484C35.36 16.821 35.7894 17.2505 36.4336 17.4653C37.6505 17.8231 38.7957 18.3242 39.8694 18.9684C40.3705 19.2547 41.0147 19.3263 41.5873 19.04L44.9515 17.3221C45.0947 17.2505 45.2379 17.2505 45.381 17.3937L47.6715 19.7558C47.7431 19.8989 47.8147 20.0421 47.7431 20.1853L45.9536 23.4063C45.6673 23.9789 45.6673 24.6231 45.9536 25.1242C46.5263 26.1263 47.0989 27.2 47.3136 28.3452C47.4568 28.9895 47.9579 29.6337 48.5305 29.8484L51.68 30.8505C51.8947 30.9221 52.2526 31.0653 52.181 31.28L52.1094 34.5726C52.1094 34.7158 52.0379 34.8589 51.8947 34.8589L48.3157 35.861C47.7431 36.0042 47.3136 36.5052 47.0989 37.0779C46.8126 38.0084 46.4547 38.8674 46.0252 39.7263C43.8779 41.0863 42.4463 43.52 42.4463 46.3116C42.4463 46.5979 42.4463 46.8842 42.5179 47.0989L41.2294 46.3831C40.7284 46.0968 40.0842 46.0968 39.5115 46.3831C38.4379 46.9558 37.221 47.4568 36.0042 47.7431C35.4315 47.8863 34.9305 48.3158 34.7873 48.8884L33.7136 52.181C33.6421 52.3958 33.4989 52.6821 33.2842 52.6821C32.7831 52.6821 29.8484 52.6105 29.9915 52.6105C29.8484 52.6105 29.7052 52.5389 29.7052 52.3958L28.7031 48.8168C28.2736 48.3874 27.8442 47.8863 27.2715 47.7431ZM34.7873 52.8252V52.7537L35.861 49.461C35.861 49.3895 36.0042 49.3179 36.0757 49.2463C37.3642 48.8884 38.6526 48.3874 39.8694 47.7431C39.941 47.6716 40.0842 47.6716 40.2273 47.7431L42.661 49.1031C43.2336 50.6063 44.2357 51.8947 45.4526 52.7537H34.7873V52.8252Z" fill="#2F80ED"/>
<path d="M14.3874 52.8252H1.78952C1.36005 52.8252 1.07373 53.1115 1.07373 53.541C1.07373 53.9705 1.36005 54.2568 1.78952 54.2568H14.3874C14.8169 54.2568 15.1032 53.9705 15.1032 53.541C15.1032 53.1115 14.7453 52.8252 14.3874 52.8252Z" fill="#2F80ED"/>
<path d="M22.2611 26.9851L26.4127 24.8377C26.5559 24.7661 26.6274 24.623 26.6274 24.4798C26.6274 24.3367 26.4843 24.1935 26.3411 24.1935L25.339 23.9788C27.2001 22.5472 29.4906 21.7598 31.9243 21.7598C37.8653 21.7598 42.7327 26.6272 42.7327 32.5682C42.7327 32.783 42.8759 32.9261 43.0906 32.9261H43.5201C43.7348 32.9261 43.878 32.783 43.878 32.5682C43.878 25.983 38.5095 20.543 31.9243 20.543C29.1327 20.543 26.4843 21.4735 24.4085 23.1914L23.979 22.0461C23.9074 21.903 23.7643 21.8314 23.6211 21.8314C23.478 21.8314 23.3348 21.903 23.2632 22.0461L21.8317 26.484C21.7601 26.6272 21.8317 26.7703 21.9032 26.8419C21.9748 26.9851 22.118 27.0567 22.2611 26.9851Z" fill="#2F80ED"/>
<path d="M39.3685 42.0172L39.7979 43.1624C39.8695 43.3056 40.0127 43.3772 40.1558 43.3772C40.299 43.3772 40.4421 43.3056 40.5137 43.1624L41.9453 38.7245C42.0169 38.5814 41.9453 38.4382 41.8737 38.3666C41.7306 38.2951 41.5874 38.2235 41.4442 38.2951L37.2927 40.4424C37.1495 40.514 37.0779 40.6572 37.0779 40.8003C37.0779 40.9435 37.2211 41.0866 37.3642 41.0866L38.3663 41.3014C36.5053 42.733 34.2148 43.5203 31.7811 43.5203C25.84 43.5203 20.9727 38.653 20.9727 32.7119C20.9727 32.4972 20.8295 32.354 20.6148 32.354H20.1853C19.9706 32.354 19.8274 32.4972 19.8274 32.7119C19.8274 39.2972 25.1958 44.7372 31.7811 44.7372C34.5727 44.7372 37.2211 43.7351 39.3685 42.0172Z" fill="#2F80ED"/>
<path d="M31.7097 37.2929C31.7812 37.3644 31.7812 37.3644 31.8528 37.3644C31.9244 37.3644 31.996 37.3644 32.0675 37.2929C32.1391 37.2213 32.1391 37.2213 32.1391 37.1497V36.3623C32.2823 36.3623 32.8549 36.3623 33.4275 36.076C34.1433 35.7181 34.5728 35.1455 34.5728 34.3581C34.5728 33.9286 34.4297 33.5708 34.2149 33.2844C34.0002 32.9981 33.7139 32.7834 33.356 32.6402C32.7833 32.3539 32.2107 32.2108 32.1391 32.2108V29.7771H32.4254C32.8549 29.7771 33.2844 29.9202 33.7139 30.0634C33.7854 30.0634 33.857 30.135 33.9286 30.135C34.0002 30.135 34.0718 30.0634 34.2149 29.9918C34.2865 29.9202 34.3581 29.7771 34.3581 29.7055C34.3581 29.4908 34.2865 29.3476 34.0718 29.276C33.5707 29.0613 33.0697 28.9897 32.497 28.9181H32.2823V28.1308C32.2823 28.0592 32.2823 27.9876 32.2107 27.916C31.996 27.916 31.9244 27.916 31.8528 27.916C31.7812 27.916 31.7097 27.916 31.7097 27.9876C31.6381 28.0592 31.6381 28.1308 31.6381 28.2023V28.9897H31.4233C30.9939 29.0613 30.636 29.1329 30.3497 29.276C29.9918 29.4908 29.7054 29.7055 29.4907 30.0634C29.276 30.3497 29.2044 30.7076 29.2044 31.0655C29.2044 31.495 29.3475 31.8529 29.5623 32.1392C29.777 32.4255 30.0633 32.6402 30.4212 32.7834C30.9223 32.9981 31.5665 33.1413 31.6381 33.2129V35.5034C31.4949 35.5034 30.7075 35.5034 29.777 35.0739C29.7054 35.0739 29.6339 35.0023 29.5623 35.0023C29.4191 35.0023 29.3475 35.0739 29.276 35.1455C29.2044 35.2171 29.1328 35.3602 29.1328 35.4318C29.1328 35.5034 29.1328 35.575 29.2044 35.7181C29.276 35.7897 29.3475 35.8613 29.4191 35.8613C30.4928 36.3623 31.4949 36.3623 31.6381 36.3623V37.1497C31.6381 37.1497 31.6381 37.2213 31.7097 37.2929ZM32.1391 33.2129L32.4254 33.2844C32.7833 33.356 32.9981 33.4992 33.2128 33.6423C33.4275 33.7855 33.5707 34.0002 33.5707 34.2865C33.5707 34.9308 33.1412 35.2886 32.4254 35.4318L32.1391 35.5034V33.2129ZM30.5644 31.6381C30.3497 31.495 30.2065 31.2086 30.2065 30.9223C30.2065 30.5644 30.3497 30.3497 30.636 30.135C30.8507 29.9918 31.0654 29.8486 31.4233 29.8486L31.7097 29.7771V32.0676C31.4233 32.0676 30.9223 31.9244 30.5644 31.6381Z" fill="#2F80ED"/>
<path d="M48.1012 49.318C48.3875 49.6043 48.817 49.6043 49.1749 49.318L53.8275 44.6654C54.1138 44.3791 54.1138 43.878 53.8275 43.5917C53.5412 43.3054 53.0402 43.3054 52.7539 43.5917L48.6739 47.6717L47.2423 46.3833C46.956 46.097 46.4549 46.097 46.1686 46.3833C45.8823 46.6696 45.8823 47.0991 46.1686 47.3854L48.1012 49.318Z" fill="#2F80ED"/>
</svg>
